<svg xmlns="http://www.w3.org/2000/svg" width="70" height="70" viewBox="0 0 70 70" style="width: 100%; height: 100%;"><desc>Made with illustrio</desc>
  
<g class="content"><rect x="8" y="8" width="54" height="54" rx="0" ry="0" class="main-fill"></rect><g class="base"><g fill="none" fill-rule="evenodd" stroke="none" class="secondary-fill">
    
    <path fill="none" d="M22.3,12.5 L21.5,12.5 C22.6,10.9 22.7,9.1 22.7,9 C22.7,8.8 22.6,8.7 22.5,8.5 C22.4,8.4 22.2,8.3 22,8.3 C21.9,8.3 20.1,8.4 18.5,9.4 L18.5,8.7 C18.5,4.6 15.5,1.3 15.4,1.1 C15.2,0.8 14.7,0.8 14.5,1.1 C14.4,1.2 11.4,4.5 11.4,8.7 L11.4,9.4 C9.8,8.4 8,8.3 7.9,8.2 C7.8,8.2 7.6,8.2 7.4,8.4 C7.4,8.6 7.3,8.7 7.3,8.9 C7.3,9 7.4,10.9 8.5,12.5 L7.7,12.5 C3.6,12.5 0.3,15.5 0.1,15.6 C0.1,15.7 0,15.8 0,16 C0,16.2 0.1,16.3 0.2,16.4 C0.3,16.5 3.6,19.5 7.8,19.5 L8.5,19.5 C7.5,21.1 7.4,22.9 7.4,23 C7.4,23.2 7.5,23.3 7.6,23.4 C7.7,23.5 7.9,23.5 8,23.5 L8,23.5 C8.1,23.5 9.9,23.4 11.5,22.4 L11.5,23.2 C11.5,27.3 14.5,30.6 14.6,30.8 C14.7,30.9 14.9,31 15,31 C15.1,31 15.3,30.9 15.4,30.8 C15.5,30.7 18.5,27.4 18.5,23.2 L18.5,22.4 C20.1,23.4 21.9,23.5 22,23.5 L22,23.5 L22,23.5 C22.3,23.5 22.6,23.3 22.6,22.9 L22.6,22.7 C22.6,22.2 22.3,20.7 21.5,19.4 L22.2,19.4 C26.3,19.4 29.6,16.4 29.8,16.3 C29.9,16.2 30,16 30,15.9 C30,15.7 29.9,15.6 29.8,15.5 C29.7,15.4 26.4,12.5 22.3,12.5 L22.3,12.5 Z M11.9,20.6 C11.8,20.7 11.7,20.8 11.6,20.9 C10.7,21.8 9.4,22.2 8.6,22.3 C8.8,21.5 9.1,20.3 10,19.3 C10.1,19.2 10.2,19.1 10.3,19 C11.2,18.7 12.1,18.4 12.8,18 C12.5,18.8 12.1,19.6 11.9,20.6 L11.9,20.6 Z M10.4,12.9 L10.1,12.6 C9.2,11.7 8.8,10.4 8.7,9.6 C9.5,9.8 10.7,10.1 11.7,11 C11.8,11.1 11.9,11.2 12,11.3 C12.3,12.2 12.6,13.1 13,13.8 C12.2,13.5 11.4,13.1 10.4,12.9 L10.4,12.9 Z M18.4,20.9 C18.3,20.8 18.2,20.7 18.1,20.6 C17.8,19.7 17.5,18.8 17.1,18.1 C17.8,18.5 18.6,18.9 19.6,19.1 L19.9,19.4 C20.8,20.3 21.2,21.6 21.3,22.4 C20.6,22.2 19.3,21.8 18.4,20.9 L18.4,20.9 Z M19.9,12.6 C19.8,12.7 19.7,12.8 19.6,12.9 C18.7,13.2 17.8,13.5 17.1,13.9 C17.5,13.2 17.9,12.4 18.1,11.4 C18.2,11.3 18.3,11.2 18.4,11.1 C19.3,10.2 20.6,9.8 21.4,9.7 C21.2,10.4 20.8,11.7 19.9,12.6 L19.9,12.6 Z" transform="translate(20 19)" stroke="none" class="secondary-fill"></path>
  </g></g></g><style>
          .main-fill {fill: #a5c9cf;}
          .main-stroke {stroke: #a5c9cf;}
          .secondary-fill {fill: #efdd88;}
          .secondary-stroke {stroke: #efdd88;}

          .main-fill--darken {fill: #73abb4;}
          .main-stroke--darken {stroke: #73abb4;}
          .secondary-fill--darken {fill: #e6ca45;}
          .secondary-stroke--darken {stroke: #e6ca45;}

          .main-fill--darkener {fill: #55959f;}
          .main-stroke--darkener {stroke: #55959f;}
          .secondary-fill--darkener {fill: #dab91d;}
          .secondary-stroke--darkener {stroke: #dab91d;}
        </style></svg>